<svg id="Layer_1" data-name="Layer 1" xmlns="http://www.w3.org/2000/svg" viewBox="0 0 820 293">
  <defs>
    <style>
      .cls-1 {
        fill: #fff;
      }
    </style>
  </defs>
  <g>
    <path class="cls-1" d="M591.46,290.22c-2.16,1.59-5.92,2.77-9.68,2.77-9.28,0-13.84-5.71-13.84-17.12v-20.69h-10.16v-4.6h10.16v-11.73h5.2v11.73h17.2v4.6h-17.2v20.53c0,8.4,2.88,12.6,8.72,12.6,2.96,0,5.6-.71,7.92-2.22l1.68,4.12Z"/>
    <path class="cls-1" d="M603.54,233.78c2.32,0,4.08,1.74,4.08,3.96s-1.76,3.96-4.08,3.96-4.08-1.74-4.08-3.96,1.84-3.96,4.08-3.96ZM606.18,291.89h-5.2v-41.3h5.2v41.3Z"/>
    <path class="cls-1" d="M620.74,281.42c2.88,4.2,8.72,7.05,15.36,7.05,3.68,0,6.8-.63,9.36-1.98,2.56-1.35,3.84-3.09,3.84-5.23,0-3.81-2.72-5.55-10.08-7.13l-7.76-1.74c-8.88-1.9-12.88-5.15-12.88-10.94,0-7.21,7.44-11.97,17.04-11.97,3.84,0,7.36.79,10.64,2.38s5.68,3.57,7.2,5.87l-4.08,2.54c-2.48-3.8-8-6.34-13.84-6.34-3.28,0-6.16.63-8.48,1.98-2.32,1.35-3.44,3.09-3.44,5.23,0,3.73,2.64,5.39,9.92,6.98l7.76,1.74c8.96,1.98,13.04,5.31,13.04,11.1,0,7.21-8,12.05-18.32,12.05-4.24,0-8.08-.87-11.68-2.62-3.52-1.74-6.08-3.88-7.76-6.42l4.16-2.54Z"/>
    <path class="cls-1" d="M665.78,281.42c2.88,4.2,8.72,7.05,15.36,7.05,3.68,0,6.8-.63,9.36-1.98,2.56-1.35,3.84-3.09,3.84-5.23,0-3.81-2.72-5.55-10.08-7.13l-7.76-1.74c-8.88-1.9-12.88-5.15-12.88-10.94,0-7.21,7.44-11.97,17.04-11.97,3.84,0,7.36.79,10.64,2.38s5.68,3.57,7.2,5.87l-4.08,2.54c-2.48-3.8-8-6.34-13.84-6.34-3.28,0-6.16.63-8.48,1.98-2.32,1.35-3.44,3.09-3.44,5.23,0,3.73,2.64,5.39,9.92,6.98l7.76,1.74c8.96,1.98,13.04,5.31,13.04,11.1,0,7.21-8,12.05-18.32,12.05-4.24,0-8.08-.87-11.68-2.62-3.52-1.74-6.08-3.88-7.76-6.42l4.16-2.54Z"/>
    <path class="cls-1" d="M749.22,250.59v41.3h-5.2v-8.48c-2.32,5.63-8.16,9.59-15.6,9.59-11.76,0-18.24-7.21-18.24-19.5v-22.91h5.2v22.59c0,9.59,4.4,15.22,13.76,15.22,8.56,0,14.88-7.21,14.88-15.54v-22.27h5.2Z"/>
    <path class="cls-1" d="M765.3,273.26c.8,8.88,7.76,15.14,16.88,15.14,6.16,0,11.68-2.54,14.64-6.9l4,2.85c-3.76,5.31-10.72,8.64-18.64,8.64-12.72,0-22-9.51-22-21.8-.24-11.97,9.12-21.96,21.12-21.72,12.24,0,21.2,8.4,21.2,20.37,0,.87-.08,2.06-.16,3.41h-37.04ZM797.38,269.06c-.08-4.52-1.6-8.16-4.56-10.94-2.96-2.77-6.72-4.12-11.44-4.12-8.72,0-15.28,6.34-16.08,15.06h32.08Z"/>
  </g>
  <g>
    <path class="cls-1" d="M62.43,219.99c-10.54,0-20.58-1.82-30.12-5.45-9.54-3.64-17.31-9.18-23.31-16.63-6-7.45-9-16.72-9-27.81,0-9.81,2.18-17.49,6.54-23.04,4.36-5.54,9.81-9.41,16.36-11.59,6.54-2.18,12.9-3.27,19.08-3.27-5.82,6.18-10.22,12.54-13.22,19.08-3,6.54-4.5,12.81-4.5,18.81s1.59,11.95,4.77,17.31c3.18,5.36,7.95,9.72,14.31,13.09,6.36,3.36,14.26,5.04,23.72,5.04,8.18,0,16.13-1.36,23.85-4.09,7.72-2.73,14.08-6.81,19.08-12.27,5-5.45,7.5-12.27,7.5-20.45,0-7.45-2.14-13.86-6.41-19.22-4.27-5.36-9.77-10.18-16.49-14.45-6.73-4.27-13.81-8.36-21.26-12.27-7.45-3.91-14.54-8.13-21.26-12.68-6.73-4.54-12.22-9.81-16.49-15.81-4.27-6-6.41-13.17-6.41-21.54,0-7.45,1.86-15.4,5.59-23.85,3.72-8.45,9.04-16.4,15.95-23.85,6.9-7.45,15.27-13.49,25.08-18.13S96.5,0,108.5,0s21.35,2.64,26.44,7.91c5.09,5.27,7.63,12.18,7.63,20.72,0,6.73-1.18,13.9-3.54,21.54-2.36,7.63-5.23,14.9-8.59,21.81-3.37,6.91-6.59,12.81-9.68,17.72-4-.91-7-2.5-9-4.77-2-2.27-3-5.32-3-9.13s.77-8.08,2.32-12.81c1.54-4.72,3.36-9.63,5.45-14.72,2.09-5.09,3.91-10.04,5.45-14.86,1.54-4.81,2.32-9.04,2.32-12.68,0-3.27-.95-5.81-2.86-7.63-1.91-1.81-5.77-2.73-11.59-2.73-8.72,0-16.72,1.91-23.99,5.72-7.27,3.82-13.59,8.63-18.95,14.45-5.36,5.82-9.5,11.95-12.4,18.4-2.91,6.45-4.36,12.31-4.36,17.58,0,6.54,2.09,12.13,6.27,16.77,4.18,4.63,9.58,8.86,16.22,12.68,6.63,3.82,13.63,7.63,20.99,11.45,7.36,3.82,14.35,8.09,20.99,12.81,6.63,4.73,12.04,10.36,16.22,16.9,4.18,6.54,6.27,14.54,6.27,23.99s-2.14,17.81-6.41,25.08c-4.27,7.27-10.04,13.4-17.31,18.4-7.27,5-15.31,8.81-24.13,11.45-8.82,2.63-17.77,3.95-26.85,3.95Z"/>
    <path class="cls-1" d="M815.37,149.12c-3.27,6.54-7.04,13.04-11.31,19.49-4.27,6.45-8.77,11.77-13.49,15.95-4.73,4.18-9.27,6.27-13.63,6.27-1.64,0-3.14-.59-4.5-1.77-1.36-1.18-2.04-3.22-2.04-6.13,0-4,.86-8.08,2.59-12.27,1.73-4.18,3.5-8.63,5.32-13.36,1.81-4.72,2.73-9.81,2.73-15.27,0-6.36-1.87-12.17-5.59-17.45-3.73-5.27-9.5-7.91-17.31-7.91-6.18,0-12.31,1.77-18.4,5.32-6.09,3.54-11.95,8.14-17.58,13.77-5.64,5.64-10.82,11.63-15.54,17.99,1.45-5.45,2.59-10.31,3.41-14.58.82-4.27,1.23-7.5,1.23-9.68,0-5.45-3.18-8.18-9.54-8.18-2.91,0-5.68.73-8.32,2.18-2.64,1.46-4.59,2.91-5.86,4.36,0,5.82-.91,12.27-2.73,19.35-.68,2.67-1.42,5.28-2.18,7.86-7.05,12.34-14,21.31-20.85,26.9-7.91,6.45-14.04,9.68-18.4,9.68-2.91,0-5-1.04-6.27-3.14-1.27-2.09-1.91-4.31-1.91-6.68,0-3.09.77-6.31,2.32-9.68,1.54-3.36,3.36-6.72,5.45-10.09,2.09-3.36,3.91-6.45,5.45-9.27,1.54-2.82,2.32-5.13,2.32-6.95,0-2-.91-3.63-2.73-4.91-1.82-1.27-3.77-2.22-5.86-2.86-2.09-.63-3.5-1.04-4.23-1.23-.91,0-1.64.46-2.18,1.36-3.45,4.54-7.54,10.04-12.27,16.49-4.73,6.45-9.68,12.77-14.86,18.95-5.18,6.18-10.32,11.31-15.4,15.4-5.09,4.09-9.72,6.13-13.9,6.13s-6.27-2.91-6.27-8.72c0-5.09,1.09-10.81,3.27-17.17,2.18-6.36,5.18-12.86,9-19.49,3.82-6.63,8.13-12.72,12.95-18.27,4.81-5.54,9.86-10.04,15.13-13.49,5.27-3.45,10.45-5.18,15.54-5.18,4.72,0,7.81,1.46,9.27,4.36,1.45,2.91,2.18,6.18,2.18,9.81,0,1.82-.14,3.54-.41,5.18-.27,1.64-.59,3.27-.95,4.91,4.72.91,8.81.27,12.27-1.91,3.45-2.18,5.18-5.73,5.18-10.63,0-6.54-2.73-11.81-8.18-15.81-5.45-4-12.09-6-19.9-6s-14.9,1.82-22.35,5.45c-7.45,3.64-14.45,8.41-20.99,14.31-6.54,5.91-12.36,12.5-17.45,19.76-4.9,7-8.78,14.08-11.66,21.25-2.5,3.33-5.19,6.52-8.11,9.55-6.82,7.09-14.09,12.77-21.81,17.04-7.73,4.27-15.4,6.41-23.04,6.41-5.09,0-9.09-.91-11.99-2.73-2.91-1.81-5-4-6.27-6.54-1.27-2.54-2.04-4.95-2.32-7.22-.27-2.27-.41-3.86-.41-4.77,0-1.81.04-3.14.14-3.95.09-.82.23-1.59.41-2.32,8.18-.91,16.31-2.86,24.4-5.86,8.08-3,15.49-6.86,22.22-11.59,6.72-4.72,12.08-10.09,16.08-16.08,4-6,6-12.45,6-19.35,0-7.27-2.14-12.13-6.41-14.58-4.27-2.45-8.77-3.68-13.49-3.68-8.36,0-16.72,2.45-25.08,7.36-8.36,4.91-16,11.31-22.9,19.22-6.91,7.91-12.4,16.36-16.49,25.35-2.79,6.14-4.61,12.05-5.49,17.72-.35.54-.69,1.09-1.05,1.63-4.46,6.64-9.09,12.09-13.9,16.36-4.82,4.27-9.5,6.41-14.04,6.41-3.45,0-6.27-1.5-8.45-4.5s-3.27-7.77-3.27-14.31c0-3.63.31-7.68.95-12.13.64-4.45,1.32-8.95,2.04-13.49,8.36-6.54,16.22-14.27,23.58-23.17,7.36-8.9,14.08-18.31,20.17-28.21,6.09-9.9,11.36-19.58,15.81-29.03,4.45-9.45,7.91-18.13,10.36-26.03,2.45-7.91,3.68-14.31,3.68-19.22,0-2.9-.5-6.04-1.5-9.4-1-3.36-2.32-6.27-3.95-8.72-1.64-2.45-3.64-3.68-6-3.68-3.45,0-7.95,3.05-13.49,9.13-5.55,6.09-11.59,14.22-18.13,24.4-6.54,10.18-13.04,21.58-19.49,34.21-6.45,12.63-12.36,25.54-17.72,38.71-5.36,13.18-9.68,25.76-12.95,37.76-1.1,4.05-2.01,7.91-2.74,11.6-4.31,7.49-9.53,14.62-15.66,21.38-8.09,8.91-16.99,16.08-26.71,21.54-9.72,5.45-19.49,8.18-29.3,8.18s-17.09-2.5-22.9-7.5c-5.82-5-10.04-11.45-12.68-19.36-2.64-7.91-3.95-16.22-3.95-24.94,0-11.81,1.81-24.3,5.45-37.48,3.63-13.17,8.59-25.99,14.86-38.44,6.27-12.45,13.31-23.72,21.13-33.8,7.81-10.09,15.95-18.13,24.4-24.13,8.45-6,16.67-9,24.67-9,4.54,0,7.72.95,9.54,2.86,1.81,1.91,2.73,4.5,2.73,7.77,0,3.64-1,7.86-3,12.68-2,4.82-4.54,9.72-7.63,14.72-3.09,5-6.36,9.72-9.81,14.18-3.45,4.46-6.54,8.22-9.27,11.31,1.64,3.09,3.45,5.27,5.45,6.54,2,1.27,3.9,1.91,5.72,1.91,4.18,0,8.27-2,12.27-6,4-4,7.59-9.13,10.77-15.4,3.18-6.27,5.73-12.77,7.63-19.49,1.91-6.72,2.86-12.81,2.86-18.26,0-9.09-2.73-15.49-8.18-19.22-5.45-3.72-12.18-5.59-20.17-5.59-11.09,0-22.22,2.96-33.39,8.86-11.18,5.91-21.67,13.95-31.49,24.13-9.81,10.18-18.58,21.81-26.31,34.89-7.73,13.09-13.77,26.85-18.13,41.3-2.94,9.73-4.86,19.44-5.82,29.12,0-.03,0-.06-.01-.1-.36,2.95-2.17,15.3-11.89,23.59-4.54,3.88-9.6,5.88-11.18,6.41-3.82,1.27-7.09,1.91-9.81,1.91-2.91,0-5.45-.54-7.63-1.64,4.91-7.45,9.13-15.36,12.68-23.72,3.54-8.36,5.32-15.9,5.32-22.63,0-6-1.59-11.18-4.77-15.54-3.18-4.36-8.68-6.54-16.49-6.54-7.27,0-13.04,1.82-17.31,5.45-4.27,3.64-7.36,7.91-9.27,12.81-1.91,4.91-2.86,9.27-2.86,13.09,0,8.91,1.27,16.49,3.82,22.76,2.54,6.27,6.72,12.04,12.54,17.31-4.36,5.09-8.95,9.59-13.77,13.49-4.82,3.91-8.95,5.86-12.4,5.86s-5.86-1.18-7.22-3.54c-1.36-2.36-2.04-5.36-2.04-9,0-3.82.55-8,1.64-12.54,1.09-4.54,2.59-9.04,4.5-13.49,1.91-4.45,4-8.68,6.27-12.68,2.27-4,4.5-7.36,6.68-10.09-.73-.91-1.95-1.59-3.68-2.04-1.73-.45-3.23-.68-4.5-.68-4,0-7.95,1.59-11.86,4.77-3.91,3.18-7.45,7.41-10.63,12.68-3.18,5.27-5.68,10.95-7.5,17.04-1.81,6.09-2.73,12.04-2.73,17.86,0,6.36,1.5,12.22,4.5,17.58,3,5.36,8.59,8.04,16.76,8.04s16.26-2.73,24.26-8.18c8-5.45,15.08-11.81,21.26-19.08,2,.73,4.18,1.32,6.54,1.77,2.36.46,4.72.68,7.09.68,6.36,0,12.86-2.13,19.49-6.41,5.45-3.51,10.01-8.71,13.69-15.61.57,9.13,2.53,18.02,5.94,26.65,4.09,10.36,10.54,18.81,19.35,25.35,8.81,6.54,20.13,9.81,33.94,9.81,12.9,0,24.94-3.05,36.12-9.13,11.18-6.09,21.22-14.18,30.12-24.26,3.48-3.94,6.75-8.04,9.84-12.3,0,.42-.03.85-.03,1.26,0,7.82,1.68,14.58,5.04,20.31,3.36,5.72,9.31,8.59,17.86,8.59,10.54,0,20.62-4.68,30.26-14.04,3.02-2.94,5.96-6.22,8.81-9.83.98,7.13,3.99,13.22,9.05,18.28,6.27,6.27,15.22,9.41,26.85,9.41,9.81,0,19.4-2.27,28.76-6.82,9.34-4.54,17.86-10.88,25.58-19.04-.06.9-.09,1.8-.09,2.68,0,8,2.23,13.99,6.68,17.99,4.45,4,9.68,6,15.67,6,6.91,0,13.4-2.55,19.49-7.63,6.09-5.09,12.77-11.99,20.04-20.72v1.36c.36,5.45,2.36,10.54,6,15.27,3.63,4.72,9.17,7.09,16.63,7.09,6.9,0,13.72-2.14,20.44-6.41,5.52-3.51,10.83-8.14,15.93-13.86-1.9,4.61-2.94,7.37-3.12,8.28,2.18,2.91,4.82,4.95,7.91,6.13,3.09,1.18,6.36,1.77,9.81,1.77,3.45-5.81,7.54-12.36,12.27-19.63,4.72-7.27,9.77-14.26,15.13-20.99,5.36-6.72,10.9-12.31,16.63-16.77,5.72-4.45,11.31-6.68,16.77-6.68,2.54,0,4.77.78,6.68,2.32,1.91,1.55,2.86,4.32,2.86,8.31s-.64,7.82-1.91,11.99c-1.27,4.18-2.55,8.31-3.82,12.4-1.27,4.09-1.91,7.95-1.91,11.58,0,5.45,1.86,9.95,5.59,13.49,3.72,3.54,9.13,5.32,16.22,5.32s13.86-2.23,19.76-6.68c5.9-4.45,11.27-10.36,16.08-17.72,4.81-7.36,9.13-15.49,12.95-24.4l-4.63-3.82ZM493.69,141.76c3.45-5.81,7.36-11.13,11.72-15.95,4.36-4.81,8.81-8.72,13.36-11.72,4.54-3,8.9-4.5,13.09-4.5,1.64,0,2.82.37,3.54,1.09.72.73,1.09,2.09,1.09,4.09,0,5.09-1.73,10.13-5.18,15.13-3.45,5-7.86,9.59-13.22,13.77-5.36,4.18-10.95,7.63-16.77,10.36-5.82,2.73-11.09,4.36-15.81,4.91,2-5.63,4.72-11.36,8.18-17.17ZM439.58,100.73c4.27-10.09,8.72-19.67,13.36-28.76,4.63-9.09,9.13-17.17,13.49-24.26,4.36-7.09,8.13-12.68,11.31-16.77,3.18-4.09,5.49-6.13,6.95-6.13v.82c-.18,3.64-1.23,8.5-3.14,14.58-1.91,6.09-4.59,12.95-8.04,20.58-3.45,7.63-7.5,15.54-12.13,23.72-4.63,8.18-9.72,16.22-15.27,24.13-5.55,7.91-11.41,15.22-17.58,21.94,3.09-9.81,6.77-19.76,11.04-29.85ZM214.54,163.02c-2.55-3.09-4.5-7.36-5.86-12.81-1.36-5.45-2.04-10.09-2.04-13.9,0-7.45,1.81-13.63,5.45-18.54,3.63-4.91,7.18-7.36,10.63-7.36,2.54,0,4.45.95,5.72,2.86,1.27,1.91,1.91,4.95,1.91,9.13,0,6.18-1.55,12.91-4.63,20.17-3.09,7.27-6.81,14.09-11.18,20.45Z"/>
  </g>
</svg>